<svg width="32" height="32" viewBox="0 0 32 32" fill="none" xmlns="http://www.w3.org/2000/svg">
<rect width="32" height="32" rx="2" fill="#365EEE"/>
<path d="M4 22V20.425C4 19.7083 4.36667 19.125 5.1 18.675C5.83333 18.225 6.8 18 8 18C8.21667 18 8.425 18.0042 8.625 18.0125C8.825 18.0208 9.01667 18.0417 9.2 18.075C8.96667 18.425 8.79167 18.7917 8.675 19.175C8.55833 19.5583 8.5 19.9583 8.5 20.375V22H4ZM10 22V20.375C10 19.8417 10.1458 19.3542 10.4375 18.9125C10.7292 18.4708 11.1417 18.0833 11.675 17.75C12.2083 17.4167 12.8458 17.1667 13.5875 17C14.3292 16.8333 15.1333 16.75 16 16.75C16.8833 16.75 17.6958 16.8333 18.4375 17C19.1792 17.1667 19.8167 17.4167 20.35 17.75C20.8833 18.0833 21.2917 18.4708 21.575 18.9125C21.8583 19.3542 22 19.8417 22 20.375V22H10ZM23.5 22V20.375C23.5 19.9417 23.4458 19.5333 23.3375 19.15C23.2292 18.7667 23.0667 18.4083 22.85 18.075C23.0333 18.0417 23.2208 18.0208 23.4125 18.0125C23.6042 18.0042 23.8 18 24 18C25.2 18 26.1667 18.2208 26.9 18.6625C27.6333 19.1042 28 19.6917 28 20.425V22H23.5ZM12.125 20H19.9C19.7333 19.6667 19.2708 19.375 18.5125 19.125C17.7542 18.875 16.9167 18.75 16 18.75C15.0833 18.75 14.2458 18.875 13.4875 19.125C12.7292 19.375 12.275 19.6667 12.125 20ZM8 17C7.45 17 6.97917 16.8042 6.5875 16.4125C6.19583 16.0208 6 15.55 6 15C6 14.4333 6.19583 13.9583 6.5875 13.575C6.97917 13.1917 7.45 13 8 13C8.56667 13 9.04167 13.1917 9.425 13.575C9.80833 13.9583 10 14.4333 10 15C10 15.55 9.80833 16.0208 9.425 16.4125C9.04167 16.8042 8.56667 17 8 17ZM24 17C23.45 17 22.9792 16.8042 22.5875 16.4125C22.1958 16.0208 22 15.55 22 15C22 14.4333 22.1958 13.9583 22.5875 13.575C22.9792 13.1917 23.45 13 24 13C24.5667 13 25.0417 13.1917 25.425 13.575C25.8083 13.9583 26 14.4333 26 15C26 15.55 25.8083 16.0208 25.425 16.4125C25.0417 16.8042 24.5667 17 24 17ZM16 16C15.1667 16 14.4583 15.7083 13.875 15.125C13.2917 14.5417 13 13.8333 13 13C13 12.15 13.2917 11.4375 13.875 10.8625C14.4583 10.2875 15.1667 10 16 10C16.85 10 17.5625 10.2875 18.1375 10.8625C18.7125 11.4375 19 12.15 19 13C19 13.8333 18.7125 14.5417 18.1375 15.125C17.5625 15.7083 16.85 16 16 16ZM16 14C16.2833 14 16.5208 13.9042 16.7125 13.7125C16.9042 13.5208 17 13.2833 17 13C17 12.7167 16.9042 12.4792 16.7125 12.2875C16.5208 12.0958 16.2833 12 16 12C15.7167 12 15.4792 12.0958 15.2875 12.2875C15.0958 12.4792 15 12.7167 15 13C15 13.2833 15.0958 13.5208 15.2875 13.7125C15.4792 13.9042 15.7167 14 16 14Z" fill="#F1F5F9"/>
</svg>
