<svg width="33" height="32" viewBox="0 0 33 32" fill="none" xmlns="http://www.w3.org/2000/svg">
<rect x="0.666626" width="32" height="32" rx="2" fill="#365EEE"/>
<path d="M12.6666 22H20.6666V20H12.6666V22ZM12.6666 18H20.6666V16H12.6666V18ZM10.6666 26C10.1166 26 9.64579 25.8042 9.25413 25.4125C8.86246 25.0208 8.66663 24.55 8.66663 24V8C8.66663 7.45 8.86246 6.97917 9.25413 6.5875C9.64579 6.19583 10.1166 6 10.6666 6H18.6666L24.6666 12V24C24.6666 24.55 24.4708 25.0208 24.0791 25.4125C23.6875 25.8042 23.2166 26 22.6666 26H10.6666ZM17.6666 13V8H10.6666V24H22.6666V13H17.6666Z" fill="white"/>
</svg>
