<svg width="33" height="32" viewBox="0 0 33 32" fill="none" xmlns="http://www.w3.org/2000/svg">
<rect x="0.333252" width="32" height="32" rx="2" fill="#365EEE"/>
<path d="M10.3333 27.5C9.49992 27.5 8.79159 27.2083 8.20825 26.625C7.62492 26.0417 7.33325 25.3333 7.33325 24.5C7.33325 23.6667 7.62492 22.9583 8.20825 22.375C8.79159 21.7917 9.49992 21.5 10.3333 21.5C10.5666 21.5 10.7833 21.525 10.9833 21.575C11.1833 21.625 11.3749 21.6917 11.5583 21.775L12.9833 20C12.5166 19.4833 12.1916 18.9 12.0083 18.25C11.8249 17.6 11.7833 16.95 11.8833 16.3L9.85825 15.625C9.57492 16.0417 9.21659 16.375 8.78325 16.625C8.34992 16.875 7.86659 17 7.33325 17C6.49992 17 5.79159 16.7083 5.20825 16.125C4.62492 15.5417 4.33325 14.8333 4.33325 14C4.33325 13.1667 4.62492 12.4583 5.20825 11.875C5.79159 11.2917 6.49992 11 7.33325 11C8.16659 11 8.87492 11.2917 9.45825 11.875C10.0416 12.4583 10.3333 13.1667 10.3333 14V14.2L12.3583 14.9C12.6916 14.3 13.1374 13.7917 13.6958 13.375C14.2541 12.9583 14.8833 12.6917 15.5833 12.575V10.4C14.9333 10.2167 14.3958 9.8625 13.9708 9.3375C13.5458 8.8125 13.3333 8.2 13.3333 7.5C13.3333 6.66667 13.6249 5.95833 14.2083 5.375C14.7916 4.79167 15.4999 4.5 16.3333 4.5C17.1666 4.5 17.8749 4.79167 18.4583 5.375C19.0416 5.95833 19.3333 6.66667 19.3333 7.5C19.3333 8.2 19.1166 8.8125 18.6833 9.3375C18.2499 9.8625 17.7166 10.2167 17.0833 10.4V12.575C17.7833 12.6917 18.4124 12.9583 18.9708 13.375C19.5291 13.7917 19.9749 14.3 20.3083 14.9L22.3333 14.2V14C22.3333 13.1667 22.6249 12.4583 23.2083 11.875C23.7916 11.2917 24.4999 11 25.3333 11C26.1666 11 26.8749 11.2917 27.4583 11.875C28.0416 12.4583 28.3333 13.1667 28.3333 14C28.3333 14.8333 28.0416 15.5417 27.4583 16.125C26.8749 16.7083 26.1666 17 25.3333 17C24.7999 17 24.3124 16.875 23.8708 16.625C23.4291 16.375 23.0749 16.0417 22.8083 15.625L20.7833 16.3C20.8833 16.95 20.8416 17.5958 20.6583 18.2375C20.4749 18.8792 20.1499 19.4667 19.6833 20L21.1083 21.75C21.2916 21.6667 21.4833 21.6042 21.6833 21.5625C21.8833 21.5208 22.0999 21.5 22.3333 21.5C23.1666 21.5 23.8749 21.7917 24.4583 22.375C25.0416 22.9583 25.3333 23.6667 25.3333 24.5C25.3333 25.3333 25.0416 26.0417 24.4583 26.625C23.8749 27.2083 23.1666 27.5 22.3333 27.5C21.4999 27.5 20.7916 27.2083 20.2083 26.625C19.6249 26.0417 19.3333 25.3333 19.3333 24.5C19.3333 24.1667 19.3874 23.8458 19.4958 23.5375C19.6041 23.2292 19.7499 22.95 19.9333 22.7L18.5083 20.925C17.8249 21.3083 17.0958 21.5 16.3208 21.5C15.5458 21.5 14.8166 21.3083 14.1333 20.925L12.7333 22.7C12.9166 22.95 13.0624 23.2292 13.1708 23.5375C13.2791 23.8458 13.3333 24.1667 13.3333 24.5C13.3333 25.3333 13.0416 26.0417 12.4583 26.625C11.8749 27.2083 11.1666 27.5 10.3333 27.5ZM7.33325 15C7.61659 15 7.85409 14.9042 8.04575 14.7125C8.23742 14.5208 8.33325 14.2833 8.33325 14C8.33325 13.7167 8.23742 13.4792 8.04575 13.2875C7.85409 13.0958 7.61659 13 7.33325 13C7.04992 13 6.81242 13.0958 6.62075 13.2875C6.42909 13.4792 6.33325 13.7167 6.33325 14C6.33325 14.2833 6.42909 14.5208 6.62075 14.7125C6.81242 14.9042 7.04992 15 7.33325 15ZM10.3333 25.5C10.6166 25.5 10.8541 25.4042 11.0458 25.2125C11.2374 25.0208 11.3333 24.7833 11.3333 24.5C11.3333 24.2167 11.2374 23.9792 11.0458 23.7875C10.8541 23.5958 10.6166 23.5 10.3333 23.5C10.0499 23.5 9.81242 23.5958 9.62075 23.7875C9.42909 23.9792 9.33325 24.2167 9.33325 24.5C9.33325 24.7833 9.42909 25.0208 9.62075 25.2125C9.81242 25.4042 10.0499 25.5 10.3333 25.5ZM16.3333 8.5C16.6166 8.5 16.8541 8.40417 17.0458 8.2125C17.2374 8.02083 17.3333 7.78333 17.3333 7.5C17.3333 7.21667 17.2374 6.97917 17.0458 6.7875C16.8541 6.59583 16.6166 6.5 16.3333 6.5C16.0499 6.5 15.8124 6.59583 15.6208 6.7875C15.4291 6.97917 15.3333 7.21667 15.3333 7.5C15.3333 7.78333 15.4291 8.02083 15.6208 8.2125C15.8124 8.40417 16.0499 8.5 16.3333 8.5ZM16.3333 19.5C17.0333 19.5 17.6249 19.2583 18.1083 18.775C18.5916 18.2917 18.8333 17.7 18.8333 17C18.8333 16.3 18.5916 15.7083 18.1083 15.225C17.6249 14.7417 17.0333 14.5 16.3333 14.5C15.6333 14.5 15.0416 14.7417 14.5583 15.225C14.0749 15.7083 13.8333 16.3 13.8333 17C13.8333 17.7 14.0749 18.2917 14.5583 18.775C15.0416 19.2583 15.6333 19.5 16.3333 19.5ZM22.3333 25.5C22.6166 25.5 22.8541 25.4042 23.0458 25.2125C23.2374 25.0208 23.3333 24.7833 23.3333 24.5C23.3333 24.2167 23.2374 23.9792 23.0458 23.7875C22.8541 23.5958 22.6166 23.5 22.3333 23.5C22.0499 23.5 21.8124 23.5958 21.6208 23.7875C21.4291 23.9792 21.3333 24.2167 21.3333 24.5C21.3333 24.7833 21.4291 25.0208 21.6208 25.2125C21.8124 25.4042 22.0499 25.5 22.3333 25.5ZM25.3333 15C25.6166 15 25.8541 14.9042 26.0458 14.7125C26.2374 14.5208 26.3333 14.2833 26.3333 14C26.3333 13.7167 26.2374 13.4792 26.0458 13.2875C25.8541 13.0958 25.6166 13 25.3333 13C25.0499 13 24.8124 13.0958 24.6208 13.2875C24.4291 13.4792 24.3333 13.7167 24.3333 14C24.3333 14.2833 24.4291 14.5208 24.6208 14.7125C24.8124 14.9042 25.0499 15 25.3333 15Z" fill="white"/>
</svg>
