<svg width="33" height="32" viewBox="0 0 33 32" fill="none" xmlns="http://www.w3.org/2000/svg">
<rect x="0.666626" width="32" height="32" rx="2" fill="#365EEE"/>
<path d="M10.0417 15.5L9.74165 14C9.54165 13.9167 9.35415 13.8292 9.17915 13.7375C9.00415 13.6458 8.82498 13.5333 8.64165 13.4L7.19165 13.85L6.19165 12.15L7.34165 11.15C7.30832 10.9333 7.29165 10.7167 7.29165 10.5C7.29165 10.2833 7.30832 10.0667 7.34165 9.85L6.19165 8.85L7.19165 7.15L8.64165 7.6C8.82498 7.46667 9.00415 7.35417 9.17915 7.2625C9.35415 7.17083 9.54165 7.08333 9.74165 7L10.0417 5.5H12.0417L12.3417 7C12.5417 7.08333 12.7292 7.17083 12.9042 7.2625C13.0792 7.35417 13.2583 7.46667 13.4417 7.6L14.8917 7.15L15.8917 8.85L14.7417 9.85C14.775 10.0667 14.7917 10.2833 14.7917 10.5C14.7917 10.7167 14.775 10.9333 14.7417 11.15L15.8917 12.15L14.8917 13.85L13.4417 13.4C13.2583 13.5333 13.0792 13.6458 12.9042 13.7375C12.7292 13.8292 12.5417 13.9167 12.3417 14L12.0417 15.5H10.0417ZM11.0417 12.5C11.5917 12.5 12.0625 12.3042 12.4542 11.9125C12.8458 11.5208 13.0417 11.05 13.0417 10.5C13.0417 9.95 12.8458 9.47917 12.4542 9.0875C12.0625 8.69583 11.5917 8.5 11.0417 8.5C10.4917 8.5 10.0208 8.69583 9.62915 9.0875C9.23748 9.47917 9.04165 9.95 9.04165 10.5C9.04165 11.05 9.23748 11.5208 9.62915 11.9125C10.0208 12.3042 10.4917 12.5 11.0417 12.5ZM18.9917 26.5L18.5417 24.4C18.2583 24.3 17.9958 24.1792 17.7542 24.0375C17.5125 23.8958 17.275 23.7333 17.0417 23.55L15.0417 24.2L13.6417 21.8L15.2417 20.4C15.2083 20.1 15.1917 19.8 15.1917 19.5C15.1917 19.2 15.2083 18.9 15.2417 18.6L13.6417 17.2L15.0417 14.8L17.0417 15.45C17.275 15.2667 17.5125 15.1042 17.7542 14.9625C17.9958 14.8208 18.2583 14.7 18.5417 14.6L18.9917 12.5H21.7917L22.2417 14.6C22.525 14.7 22.7875 14.8208 23.0292 14.9625C23.2708 15.1042 23.5083 15.2667 23.7417 15.45L25.7417 14.8L27.1417 17.2L25.5417 18.6C25.575 18.9 25.5917 19.2 25.5917 19.5C25.5917 19.8 25.575 20.1 25.5417 20.4L27.1417 21.8L25.7417 24.2L23.7417 23.55C23.5083 23.7333 23.2708 23.8958 23.0292 24.0375C22.7875 24.1792 22.525 24.3 22.2417 24.4L21.7917 26.5H18.9917ZM20.3917 22.5C21.225 22.5 21.9333 22.2083 22.5167 21.625C23.1 21.0417 23.3917 20.3333 23.3917 19.5C23.3917 18.6667 23.1 17.9583 22.5167 17.375C21.9333 16.7917 21.225 16.5 20.3917 16.5C19.5583 16.5 18.85 16.7917 18.2667 17.375C17.6833 17.9583 17.3917 18.6667 17.3917 19.5C17.3917 20.3333 17.6833 21.0417 18.2667 21.625C18.85 22.2083 19.5583 22.5 20.3917 22.5Z" fill="white"/>
</svg>
