<svg width="32" height="32" viewBox="0 0 32 32" fill="none" xmlns="http://www.w3.org/2000/svg">
<rect width="32" height="32" rx="2" fill="#365EEE"/>
<path d="M6 10V5H11V7H8V10H6ZM24 10V7H21V5H26V10H24ZM6 27V22H8V25H11V27H6ZM21 27V25H24V22H26V27H21ZM11 22H21V10H11V22ZM11 24C10.45 24 9.97917 23.8042 9.5875 23.4125C9.19583 23.0208 9 22.55 9 22V10C9 9.45 9.19583 8.97917 9.5875 8.5875C9.97917 8.19583 10.45 8 11 8H21C21.55 8 22.0208 8.19583 22.4125 8.5875C22.8042 8.97917 23 9.45 23 10V22C23 22.55 22.8042 23.0208 22.4125 23.4125C22.0208 23.8042 21.55 24 21 24H11ZM13 14H19V12H13V14ZM13 17H19V15H13V17ZM13 20H19V18H13V20Z" fill="white"/>
</svg>
