<svg width="33" height="32" viewBox="0 0 33 32" fill="none" xmlns="http://www.w3.org/2000/svg">
<rect x="0.333252" width="32" height="32" rx="2" fill="#365EEE"/>
<path d="M14.3333 26.25V24.25H27.3333V26.25H14.3333ZM15.3333 23.25C15.3333 21.9 15.7583 20.7208 16.6083 19.7125C17.4583 18.7042 18.5333 18.0833 19.8333 17.85V17.225C19.8333 16.9417 19.9291 16.7042 20.1208 16.5125C20.3124 16.3208 20.5499 16.225 20.8333 16.225C21.1166 16.225 21.3541 16.3208 21.5458 16.5125C21.7374 16.7042 21.8333 16.9417 21.8333 17.225V17.85C23.1166 18.0833 24.1874 18.7042 25.0458 19.7125C25.9041 20.7208 26.3333 21.9 26.3333 23.25H15.3333ZM17.9583 21.225H23.6583C23.3416 20.775 22.9374 20.4125 22.4458 20.1375C21.9541 19.8625 21.4166 19.725 20.8333 19.725C20.2333 19.725 19.6833 19.8625 19.1833 20.1375C18.6833 20.4125 18.2749 20.775 17.9583 21.225ZM5.33325 17.25V6.25H11.3333V7.7L18.3333 5.75L26.3333 8.25V9.25C26.3333 10.0833 26.0416 10.7917 25.4583 11.375C24.8749 11.9583 24.1666 12.25 23.3333 12.25H21.3333V12.85C21.3333 13.2667 21.2124 13.6458 20.9708 13.9875C20.7291 14.3292 20.4166 14.575 20.0333 14.725L13.2833 17.25H5.33325ZM7.33325 15.25H9.33325V8.25H7.33325V15.25ZM11.3333 15.25H12.9333L18.7333 13.125C18.9166 13.0583 19.0624 12.9458 19.1708 12.7875C19.2791 12.6292 19.3333 12.45 19.3333 12.25H17.5583L14.6333 13.2L14.0333 11.3L17.1583 10.25H23.3333C23.4833 10.25 23.6708 10.1958 23.8958 10.0875C24.1208 9.97917 24.2333 9.85 24.2333 9.7L18.2833 7.85L11.3333 9.75V15.25Z" fill="white"/>
</svg>
