<svg width="33" height="32" viewBox="0 0 33 32" fill="none" xmlns="http://www.w3.org/2000/svg">
<rect x="0.666626" width="32" height="32" rx="2" fill="#365EEE"/>
<path d="M8.66663 25.5C8.11663 25.5 7.64579 25.3042 7.25413 24.9125C6.86246 24.5208 6.66663 24.05 6.66663 23.5V12.5C6.66663 11.95 6.86246 11.4792 7.25413 11.0875C7.64579 10.6958 8.11663 10.5 8.66663 10.5H12.6666V8.5C12.6666 7.95 12.8625 7.47917 13.2541 7.0875C13.6458 6.69583 14.1166 6.5 14.6666 6.5H18.6666C19.2166 6.5 19.6875 6.69583 20.0791 7.0875C20.4708 7.47917 20.6666 7.95 20.6666 8.5V10.5H24.6666C25.2166 10.5 25.6875 10.6958 26.0791 11.0875C26.4708 11.4792 26.6666 11.95 26.6666 12.5V23.5C26.6666 24.05 26.4708 24.5208 26.0791 24.9125C25.6875 25.3042 25.2166 25.5 24.6666 25.5H8.66663ZM14.6666 10.5H18.6666V8.5H14.6666V10.5ZM10.6666 12.5H8.66663V23.5H10.6666V12.5ZM20.6666 23.5V12.5H12.6666V23.5H20.6666ZM22.6666 12.5V23.5H24.6666V12.5H22.6666Z" fill="white"/>
</svg>
