<svg width="108" height="48" viewBox="0 0 108 48" fill="none" xmlns="http://www.w3.org/2000/svg">
<g clip-path="url(#clip0_1_593)">
<path d="M28.4297 30.862V9.92358H31.6903V18.1732C32.7116 16.6412 34.2437 15.8948 36.2864 15.8948C38.015 15.8948 39.3899 16.4055 40.3327 17.4268C41.2756 18.4482 41.747 19.9017 41.747 21.7481V30.862H38.4864V22.2195C38.4864 19.8232 37.4257 18.6446 35.3044 18.6446C34.2437 18.6446 33.3794 18.9589 32.6724 19.6267C32.0045 20.2553 31.651 21.1588 31.651 22.3373V30.9012L28.4297 30.862Z" fill="#323232"/>
<path d="M57.1463 29.0557C55.6928 30.5091 53.8857 31.2163 51.6858 31.2163C49.4859 31.2163 47.6788 30.5091 46.2254 29.0557C44.7718 27.6021 44.0254 25.7558 44.0254 23.556C44.0254 21.3167 44.7718 19.5096 46.2254 18.0561C47.6788 16.6026 49.4859 15.8955 51.6858 15.8955C53.8857 15.8955 55.6928 16.6026 57.1463 18.0561C58.5998 19.5096 59.3069 21.3167 59.3069 23.556C59.3069 25.795 58.5998 27.6415 57.1463 29.0557ZM48.6216 27.2486C49.4073 28.1521 50.4287 28.6236 51.7251 28.6236C53.0214 28.6236 54.0429 28.1521 54.8285 27.2486C55.6142 26.3451 56.007 25.1272 56.007 23.556C56.007 22.0238 55.6142 20.806 54.8285 19.9025C54.0429 18.9989 53.0214 18.5275 51.7643 18.5275C50.468 18.5275 49.4466 18.9597 48.6609 19.8632C47.8752 20.7667 47.4823 21.9846 47.4823 23.5166C47.4431 25.088 47.836 26.3451 48.6216 27.2486Z" fill="#323232"/>
<path d="M66.8506 31.2575C63.865 31.2575 62.3723 29.6468 62.3723 26.4256V19.0008H60.0938V16.2509H62.4508L63.1972 11.9297H65.6328V16.2509H71.4468V19.0008H65.6328V26.3076C65.6328 27.6433 66.1436 28.3111 67.1256 28.3111C68.0685 28.3111 68.8934 27.4861 69.6398 25.797L72.154 27.0934C70.8969 29.8825 69.1292 31.2575 66.8506 31.2575Z" fill="#323232"/>
<path d="M73.1764 37.5796C71.7228 37.5796 70.5443 37.1867 69.6016 36.3617L70.8193 33.8082C71.4085 34.4761 72.0371 34.8297 72.705 34.8297C73.6085 34.8297 74.0798 34.2405 74.0798 33.1012V16.2483H77.3405V33.1012C77.3405 34.6726 76.9476 35.8117 76.162 36.4795C75.3762 37.2259 74.3941 37.5796 73.1764 37.5796ZM75.6905 13.7734C75.1405 13.7734 74.6299 13.577 74.237 13.2235C74.0406 13.027 73.8835 12.8306 73.8049 12.5949C73.6871 12.3592 73.6477 12.0842 73.6871 11.8485C73.6871 11.5735 73.7263 11.3378 73.8442 11.1021C73.962 10.8664 74.0798 10.6307 74.2763 10.4736C74.6692 10.12 75.1799 9.92358 75.7298 9.92358C76.2798 9.92358 76.7905 10.12 77.1833 10.4736C77.3797 10.67 77.5369 10.8664 77.6154 11.1021C77.7334 11.3378 77.7726 11.6128 77.7726 11.8485C77.7726 12.1235 77.7334 12.3592 77.6154 12.5949C77.4976 12.8306 77.3797 13.027 77.1833 13.2235C76.987 13.4199 76.7512 13.5377 76.5155 13.6556C76.2406 13.7341 75.9655 13.8127 75.6905 13.7734Z" fill="#323232"/>
<path d="M85.3928 31.2537C83.7429 31.2537 82.3679 30.8216 81.3466 29.9966C80.3252 29.1716 79.8145 28.0323 79.8145 26.6575C79.8145 25.3611 80.3644 24.3004 81.4251 23.3968C82.4858 22.4933 83.8607 22.0612 85.4714 22.0612C87.1212 22.0612 88.5356 22.6112 89.6747 23.6719V21.904C89.6747 20.8434 89.3998 20.0577 88.8891 19.4684C88.3391 18.8792 87.5927 18.6042 86.6107 18.6042C84.6071 18.6042 83.3894 19.6256 82.9179 21.6291L79.9323 21.0005C80.3252 19.4291 81.1108 18.2113 82.3287 17.3078C83.5072 16.4043 85 15.9329 86.7677 15.9329C88.6926 15.9329 90.2247 16.4436 91.3247 17.4649C92.4246 18.4863 93.0138 19.9791 93.0138 21.904V30.9001H89.8319V29.0537C88.732 30.5073 87.2785 31.2537 85.3928 31.2537ZM86.0213 28.8181C87.4749 28.8181 88.6926 28.1109 89.7141 26.6575V26.186C88.6926 24.9682 87.4749 24.3789 86.0213 24.3789C85.1963 24.3789 84.4893 24.5753 83.9786 25.0075C83.7429 25.2039 83.5464 25.4396 83.3894 25.7146C83.2715 25.9895 83.1929 26.3038 83.1929 26.6181C83.1929 26.9324 83.2322 27.2467 83.3894 27.5217C83.5072 27.7966 83.7036 28.0323 83.9786 28.2287C84.45 28.6216 85.1571 28.8181 86.0213 28.8181Z" fill="#323232"/>
<path d="M96.1172 30.8591V16.2455H99.2991V18.7596C100.085 16.9133 101.499 15.9705 103.463 15.9705C104.642 15.9705 105.585 16.3633 106.37 17.1097C107.156 17.8561 107.51 18.9168 107.51 20.1739C107.51 20.9595 107.352 21.706 107.117 22.4524L104.131 22.1381C104.21 21.7452 104.249 21.3524 104.249 20.9203C104.249 19.4275 103.62 18.6418 102.363 18.6418C101.538 18.6418 100.792 19.0739 100.242 19.9774C99.6527 20.881 99.3777 22.0595 99.3777 23.513V30.7805H96.1172V30.8591Z" fill="#323232"/>
<path d="M8.12177 18.4875C10.5574 17.1519 13.8573 15.3055 13.8573 9.92358H9.81099C9.81099 12.9092 8.35747 13.7341 6.11829 14.9519C3.68267 16.2876 0.382812 18.1339 0.382812 23.5158H4.38978C4.42907 20.5303 5.88258 19.7446 8.12177 18.4875Z" fill="#FF3C00"/>
<path d="M15.0766 17.2734C15.0766 20.259 13.6231 21.084 11.3839 22.3018C8.94829 23.6375 5.64844 25.4838 5.64844 30.8657H9.65541C9.65541 27.8801 11.1089 27.0552 13.3481 25.8373C15.7837 24.5017 19.0836 22.6554 19.0836 17.2734H15.0766Z" fill="#FF3C00"/>
</g>
<defs>
<clipPath id="clip0_1_593">
<rect width="108" height="28.8" fill="white" transform="translate(0 9.6001)"/>
</clipPath>
</defs>
</svg>
