<svg width="168" height="44" viewBox="0 0 168 44" fill="none" xmlns="http://www.w3.org/2000/svg">
<path d="M0 10H17.2747V15.8878H0V10Z" fill="url(#paint0_linear_1_2421)"/>
<path d="M20.1348 10H17.2747V15.8878L20.1348 10Z" fill="url(#paint1_linear_1_2421)"/>
<path d="M0 17.0654H11.6392V22.9532H0V17.0654Z" fill="url(#paint2_linear_1_2421)"/>
<path d="M14.4992 17.0654H11.6392V22.9532L14.4992 17.0654Z" fill="url(#paint3_linear_1_2421)"/>
<path d="M0 24.1307H17.1918V30.0185H0V24.1307Z" fill="url(#paint4_linear_1_2421)"/>
<path d="M20.0518 24.1307H17.1918V30.0185L20.0518 24.1307Z" fill="url(#paint5_linear_1_2421)"/>
<path d="M150.203 29.0176V10.9565H153.109V29.0176H150.203ZM153.636 22.5405L157.344 16.5616H159.699V18.3055L156.793 22.5405L160 27.2738V29.0176H157.62L153.636 22.5405Z" fill="#134FCC"/>
<path d="M150.203 29.0176V10.9565H153.109V29.0176H150.203ZM153.636 22.5405L157.344 16.5616H159.699V18.3055L156.793 22.5405L160 27.2738V29.0176H157.62L153.636 22.5405Z" fill="url(#paint6_linear_1_2421)"/>
<path d="M137.294 21.8928C137.294 20.2486 137.795 18.9033 138.822 17.8819C139.824 16.8606 141.177 16.3374 142.881 16.3374C144.535 16.3374 145.888 16.8606 146.915 17.8819C147.918 18.9033 148.444 20.2486 148.444 21.8928V23.6864C148.444 25.3555 147.918 26.7008 146.915 27.7222C145.888 28.7436 144.535 29.2418 142.881 29.2418C141.177 29.2418 139.824 28.7436 138.822 27.7222C137.795 26.7008 137.294 25.3555 137.294 23.6864V21.8928ZM140.2 24.085C140.2 24.8822 140.426 25.505 140.927 26.0032C141.428 26.5015 142.079 26.7257 142.881 26.7257C143.683 26.7257 144.309 26.5015 144.811 26.0032C145.287 25.505 145.537 24.8822 145.537 24.085V21.4942C145.537 20.697 145.287 20.0742 144.811 19.576C144.309 19.1026 143.683 18.8535 142.881 18.8535C142.079 18.8535 141.428 19.1026 140.927 19.576C140.426 20.0742 140.2 20.697 140.2 21.4942V24.085Z" fill="#134FCC"/>
<path d="M137.294 21.8928C137.294 20.2486 137.795 18.9033 138.822 17.8819C139.824 16.8606 141.177 16.3374 142.881 16.3374C144.535 16.3374 145.888 16.8606 146.915 17.8819C147.918 18.9033 148.444 20.2486 148.444 21.8928V23.6864C148.444 25.3555 147.918 26.7008 146.915 27.7222C145.888 28.7436 144.535 29.2418 142.881 29.2418C141.177 29.2418 139.824 28.7436 138.822 27.7222C137.795 26.7008 137.294 25.3555 137.294 23.6864V21.8928ZM140.2 24.085C140.2 24.8822 140.426 25.505 140.927 26.0032C141.428 26.5015 142.079 26.7257 142.881 26.7257C143.683 26.7257 144.309 26.5015 144.811 26.0032C145.287 25.505 145.537 24.8822 145.537 24.085V21.4942C145.537 20.697 145.287 20.0742 144.811 19.576C144.309 19.1026 143.683 18.8535 142.881 18.8535C142.079 18.8535 141.428 19.1026 140.927 19.576C140.426 20.0742 140.2 20.697 140.2 21.4942V24.085Z" fill="url(#paint7_linear_1_2421)"/>
<path d="M124.936 21.8928C124.936 20.2486 125.437 18.9033 126.464 17.8819C127.466 16.8606 128.819 16.3374 130.523 16.3374C132.177 16.3374 133.53 16.8606 134.557 17.8819C135.56 18.9033 136.086 20.2486 136.086 21.8928V23.6864C136.086 25.3555 135.56 26.7008 134.557 27.7222C133.53 28.7436 132.177 29.2418 130.523 29.2418C128.819 29.2418 127.466 28.7436 126.464 27.7222C125.437 26.7008 124.936 25.3555 124.936 23.6864V21.8928ZM127.842 24.085C127.842 24.8822 128.068 25.505 128.569 26.0032C129.07 26.5015 129.721 26.7257 130.523 26.7257C131.325 26.7257 131.951 26.5015 132.453 26.0032C132.929 25.505 133.179 24.8822 133.179 24.085V21.4942C133.179 20.697 132.929 20.0742 132.453 19.576C131.951 19.1026 131.325 18.8535 130.523 18.8535C129.721 18.8535 129.07 19.1026 128.569 19.576C128.068 20.0742 127.842 20.697 127.842 21.4942V24.085Z" fill="#134FCC"/>
<path d="M124.936 21.8928C124.936 20.2486 125.437 18.9033 126.464 17.8819C127.466 16.8606 128.819 16.3374 130.523 16.3374C132.177 16.3374 133.53 16.8606 134.557 17.8819C135.56 18.9033 136.086 20.2486 136.086 21.8928V23.6864C136.086 25.3555 135.56 26.7008 134.557 27.7222C133.53 28.7436 132.177 29.2418 130.523 29.2418C128.819 29.2418 127.466 28.7436 126.464 27.7222C125.437 26.7008 124.936 25.3555 124.936 23.6864V21.8928ZM127.842 24.085C127.842 24.8822 128.068 25.505 128.569 26.0032C129.07 26.5015 129.721 26.7257 130.523 26.7257C131.325 26.7257 131.951 26.5015 132.453 26.0032C132.929 25.505 133.179 24.8822 133.179 24.085V21.4942C133.179 20.697 132.929 20.0742 132.453 19.576C131.951 19.1026 131.325 18.8535 130.523 18.8535C129.721 18.8535 129.07 19.1026 128.569 19.576C128.068 20.0742 127.842 20.697 127.842 21.4942V24.085Z" fill="url(#paint8_linear_1_2421)"/>
<path d="M112.788 29.0176V11.5793H119.002C120.255 11.5793 121.282 11.9778 122.059 12.7252C122.811 13.4975 123.212 14.4939 123.212 15.7395V16.1381C123.212 17.1595 122.936 18.0314 122.435 18.729C121.909 19.4265 121.207 19.8998 120.33 20.124C121.357 20.3233 122.184 20.7718 122.786 21.5191C123.387 22.2665 123.713 23.2131 123.713 24.3093V24.7577C123.713 26.0531 123.312 27.0745 122.535 27.8468C121.733 28.6439 120.706 29.0176 119.428 29.0176H112.788ZM118.1 14.0954H115.895V18.9034H118.1C118.726 18.9034 119.228 18.729 119.629 18.3304C120.004 17.9567 120.205 17.4585 120.205 16.8108V16.2129C120.205 15.5901 120.004 15.0918 119.629 14.6932C119.228 14.2947 118.726 14.0954 118.1 14.0954ZM118.501 21.4444H115.895V26.5015H118.501C119.127 26.5015 119.629 26.3271 120.029 25.9285C120.43 25.5299 120.631 25.0317 120.631 24.384V23.537C120.631 22.9142 120.43 22.4159 120.029 22.0174C119.629 21.6437 119.127 21.4444 118.501 21.4444Z" fill="#134FCC"/>
<path d="M112.788 29.0176V11.5793H119.002C120.255 11.5793 121.282 11.9778 122.059 12.7252C122.811 13.4975 123.212 14.4939 123.212 15.7395V16.1381C123.212 17.1595 122.936 18.0314 122.435 18.729C121.909 19.4265 121.207 19.8998 120.33 20.124C121.357 20.3233 122.184 20.7718 122.786 21.5191C123.387 22.2665 123.713 23.2131 123.713 24.3093V24.7577C123.713 26.0531 123.312 27.0745 122.535 27.8468C121.733 28.6439 120.706 29.0176 119.428 29.0176H112.788ZM118.1 14.0954H115.895V18.9034H118.1C118.726 18.9034 119.228 18.729 119.629 18.3304C120.004 17.9567 120.205 17.4585 120.205 16.8108V16.2129C120.205 15.5901 120.004 15.0918 119.629 14.6932C119.228 14.2947 118.726 14.0954 118.1 14.0954ZM118.501 21.4444H115.895V26.5015H118.501C119.127 26.5015 119.629 26.3271 120.029 25.9285C120.43 25.5299 120.631 25.0317 120.631 24.384V23.537C120.631 22.9142 120.43 22.4159 120.029 22.0174C119.629 21.6437 119.127 21.4444 118.501 21.4444Z" fill="url(#paint9_linear_1_2421)"/>
<path d="M110.605 25.1314C110.33 26.3769 109.728 27.3734 108.801 28.0959C107.874 28.8432 106.722 29.192 105.369 29.192C103.74 29.192 102.437 28.7187 101.46 27.7222C100.457 26.7506 99.9814 25.4552 99.9814 23.811V21.7433C99.9814 20.149 100.457 18.8535 101.435 17.8571C102.412 16.8855 103.715 16.3873 105.318 16.3873C106.922 16.3873 108.225 16.8855 109.202 17.8571C110.179 18.8535 110.681 20.149 110.681 21.7433V23.4124H101.861V24.0601C101.861 25.1064 102.186 25.9534 102.838 26.6012C103.489 27.2489 104.341 27.5478 105.444 27.5478C106.296 27.5478 107.022 27.3485 107.624 26.9001C108.225 26.4766 108.626 25.8787 108.826 25.1314H110.605ZM108.902 21.9675V21.4693C108.902 20.423 108.576 19.6009 107.924 18.9532C107.273 18.3304 106.446 18.0065 105.394 18.0065C104.316 18.0065 103.464 18.3304 102.813 18.9532C102.161 19.6009 101.861 20.423 101.861 21.4693V21.9675H108.902Z" fill="#134FCC"/>
<path d="M110.605 25.1314C110.33 26.3769 109.728 27.3734 108.801 28.0959C107.874 28.8432 106.722 29.192 105.369 29.192C103.74 29.192 102.437 28.7187 101.46 27.7222C100.457 26.7506 99.9814 25.4552 99.9814 23.811V21.7433C99.9814 20.149 100.457 18.8535 101.435 17.8571C102.412 16.8855 103.715 16.3873 105.318 16.3873C106.922 16.3873 108.225 16.8855 109.202 17.8571C110.179 18.8535 110.681 20.149 110.681 21.7433V23.4124H101.861V24.0601C101.861 25.1064 102.186 25.9534 102.838 26.6012C103.489 27.2489 104.341 27.5478 105.444 27.5478C106.296 27.5478 107.022 27.3485 107.624 26.9001C108.225 26.4766 108.626 25.8787 108.826 25.1314H110.605ZM108.902 21.9675V21.4693C108.902 20.423 108.576 19.6009 107.924 18.9532C107.273 18.3304 106.446 18.0065 105.394 18.0065C104.316 18.0065 103.464 18.3304 102.813 18.9532C102.161 19.6009 101.861 20.423 101.861 21.4693V21.9675H108.902Z" fill="url(#paint10_linear_1_2421)"/>
<path d="M98.4314 25.3805C98.4314 26.5762 97.9804 27.5229 97.1034 28.1955C96.2265 28.8681 95.0237 29.192 93.5203 29.192C91.9668 29.192 90.714 28.8432 89.7618 28.1457C88.8097 27.4482 88.2334 26.4766 88.058 25.231H89.7869C89.9122 25.9784 90.288 26.5513 90.9395 26.9499C91.591 27.3734 92.4178 27.5727 93.4452 27.5727C94.3973 27.5727 95.1741 27.3983 95.7253 27.0496C96.2766 26.7008 96.5522 26.2026 96.5522 25.5549C96.5522 25.0317 96.3267 24.6082 95.8757 24.3093C95.4246 24.0103 94.7231 23.7612 93.7208 23.6117L92.3677 23.4124C90.9395 23.2131 89.9122 22.8395 89.2858 22.3163C88.6343 21.7931 88.3336 21.0458 88.3336 20.0742C88.3336 18.9283 88.7345 18.0065 89.5363 17.3588C90.3382 16.7111 91.4657 16.3873 92.919 16.3873C94.3723 16.3873 95.5249 16.736 96.4269 17.4086C97.3289 18.1062 97.8551 19.0528 98.0305 20.2984H96.2766C96.1513 19.576 95.8005 19.003 95.2492 18.6044C94.6729 18.2058 93.9212 17.9816 92.9941 17.9816C92.1172 17.9816 91.4406 18.156 90.9395 18.5048C90.4384 18.8535 90.2129 19.3518 90.2129 19.9497C90.2129 20.4728 90.4133 20.8714 90.8393 21.1704C91.2652 21.4693 91.9668 21.6935 92.9691 21.843L94.2971 22.0423C95.7504 22.2665 96.8027 22.6402 97.4542 23.1633C98.1057 23.7114 98.4314 24.4338 98.4314 25.3805Z" fill="#134FCC"/>
<path d="M98.4314 25.3805C98.4314 26.5762 97.9804 27.5229 97.1034 28.1955C96.2265 28.8681 95.0237 29.192 93.5203 29.192C91.9668 29.192 90.714 28.8432 89.7618 28.1457C88.8097 27.4482 88.2334 26.4766 88.058 25.231H89.7869C89.9122 25.9784 90.288 26.5513 90.9395 26.9499C91.591 27.3734 92.4178 27.5727 93.4452 27.5727C94.3973 27.5727 95.1741 27.3983 95.7253 27.0496C96.2766 26.7008 96.5522 26.2026 96.5522 25.5549C96.5522 25.0317 96.3267 24.6082 95.8757 24.3093C95.4246 24.0103 94.7231 23.7612 93.7208 23.6117L92.3677 23.4124C90.9395 23.2131 89.9122 22.8395 89.2858 22.3163C88.6343 21.7931 88.3336 21.0458 88.3336 20.0742C88.3336 18.9283 88.7345 18.0065 89.5363 17.3588C90.3382 16.7111 91.4657 16.3873 92.919 16.3873C94.3723 16.3873 95.5249 16.736 96.4269 17.4086C97.3289 18.1062 97.8551 19.0528 98.0305 20.2984H96.2766C96.1513 19.576 95.8005 19.003 95.2492 18.6044C94.6729 18.2058 93.9212 17.9816 92.9941 17.9816C92.1172 17.9816 91.4406 18.156 90.9395 18.5048C90.4384 18.8535 90.2129 19.3518 90.2129 19.9497C90.2129 20.4728 90.4133 20.8714 90.8393 21.1704C91.2652 21.4693 91.9668 21.6935 92.9691 21.843L94.2971 22.0423C95.7504 22.2665 96.8027 22.6402 97.4542 23.1633C98.1057 23.7114 98.4314 24.4338 98.4314 25.3805Z" fill="url(#paint11_linear_1_2421)"/>
<path d="M85.8242 29.0176H83.92V21.0458C83.92 20.124 83.6193 19.3767 83.0179 18.8037C82.4165 18.2307 81.6398 17.9318 80.6876 17.9318C79.7355 17.9318 78.9587 18.2307 78.3824 18.8037C77.7811 19.3767 77.5055 20.124 77.5055 21.0458V29.0176H75.5761V16.5616H77.5055V19.3269C77.7811 18.4051 78.2822 17.6827 79.0089 17.1595C79.7355 16.6613 80.6125 16.3873 81.6648 16.3873C82.9177 16.3873 83.9199 16.7858 84.6716 17.5332C85.4233 18.3055 85.8242 19.302 85.8242 20.5476V29.0176Z" fill="#134FCC"/>
<path d="M85.8242 29.0176H83.92V21.0458C83.92 20.124 83.6193 19.3767 83.0179 18.8037C82.4165 18.2307 81.6398 17.9318 80.6876 17.9318C79.7355 17.9318 78.9587 18.2307 78.3824 18.8037C77.7811 19.3767 77.5055 20.124 77.5055 21.0458V29.0176H75.5761V16.5616H77.5055V19.3269C77.7811 18.4051 78.2822 17.6827 79.0089 17.1595C79.7355 16.6613 80.6125 16.3873 81.6648 16.3873C82.9177 16.3873 83.9199 16.7858 84.6716 17.5332C85.4233 18.3055 85.8242 19.302 85.8242 20.5476V29.0176Z" fill="url(#paint12_linear_1_2421)"/>
<path d="M73.0176 25.1314C72.742 26.3769 72.1406 27.3734 71.2135 28.0959C70.2864 28.8432 69.1338 29.192 67.7808 29.192C66.1521 29.192 64.8491 28.7187 63.8719 27.7222C62.8697 26.7506 62.3936 25.4552 62.3936 23.811V21.7433C62.3936 20.149 62.8697 18.8535 63.8469 17.8571C64.8241 16.8855 66.127 16.3873 67.7306 16.3873C69.3343 16.3873 70.6372 16.8855 71.6144 17.8571C72.5916 18.8535 73.0928 20.149 73.0928 21.7433V23.4124H64.2728V24.0601C64.2728 25.1064 64.5986 25.9534 65.25 26.6012C65.9015 27.2489 66.7534 27.5478 67.8559 27.5478C68.7079 27.5478 69.4345 27.3485 70.0359 26.9001C70.6372 26.4766 71.0381 25.8787 71.2386 25.1314H73.0176ZM71.3137 21.9675V21.4693C71.3137 20.423 70.988 19.6009 70.3365 18.9532C69.6851 18.3304 68.8582 18.0065 67.8058 18.0065C66.7284 18.0065 65.8764 18.3304 65.225 18.9532C64.5735 19.6009 64.2728 20.423 64.2728 21.4693V21.9675H71.3137Z" fill="#134FCC"/>
<path d="M73.0176 25.1314C72.742 26.3769 72.1406 27.3734 71.2135 28.0959C70.2864 28.8432 69.1338 29.192 67.7808 29.192C66.1521 29.192 64.8491 28.7187 63.8719 27.7222C62.8697 26.7506 62.3936 25.4552 62.3936 23.811V21.7433C62.3936 20.149 62.8697 18.8535 63.8469 17.8571C64.8241 16.8855 66.127 16.3873 67.7306 16.3873C69.3343 16.3873 70.6372 16.8855 71.6144 17.8571C72.5916 18.8535 73.0928 20.149 73.0928 21.7433V23.4124H64.2728V24.0601C64.2728 25.1064 64.5986 25.9534 65.25 26.6012C65.9015 27.2489 66.7534 27.5478 67.8559 27.5478C68.7079 27.5478 69.4345 27.3485 70.0359 26.9001C70.6372 26.4766 71.0381 25.8787 71.2386 25.1314H73.0176ZM71.3137 21.9675V21.4693C71.3137 20.423 70.988 19.6009 70.3365 18.9532C69.6851 18.3304 68.8582 18.0065 67.8058 18.0065C66.7284 18.0065 65.8764 18.3304 65.225 18.9532C64.5735 19.6009 64.2728 20.423 64.2728 21.4693V21.9675H71.3137Z" fill="url(#paint13_linear_1_2421)"/>
<path d="M49.6122 34V16.5616H51.5415V19.7005C51.8422 18.6792 52.3684 17.882 53.1702 17.2841C53.972 16.6862 54.9242 16.3873 56.0517 16.3873C57.4048 16.3873 58.4822 16.8108 59.3341 17.6578C60.1861 18.5048 60.612 19.6258 60.612 21.0209V24.5584C60.612 25.9534 60.1861 27.0745 59.3341 27.9215C58.4822 28.7685 57.4048 29.192 56.0517 29.192C54.9242 29.192 53.972 28.918 53.1702 28.3201C52.3684 27.7222 51.8422 26.925 51.5415 25.8787V34H49.6122ZM51.5415 24.0601C51.5415 25.1563 51.8673 26.0282 52.5187 26.6759C53.1702 27.3236 54.0221 27.6475 55.0996 27.6475C56.177 27.6475 57.054 27.3236 57.7055 26.6759C58.3569 26.0282 58.6827 25.1563 58.6827 24.0601V21.5191C58.6827 20.4479 58.3569 19.576 57.7055 18.9283C57.054 18.2806 56.177 17.9318 55.0996 17.9318C54.0221 17.9318 53.1702 18.2806 52.5187 18.9283C51.8673 19.576 51.5415 20.4479 51.5415 21.5191V24.0601Z" fill="#134FCC"/>
<path d="M49.6122 34V16.5616H51.5415V19.7005C51.8422 18.6792 52.3684 17.882 53.1702 17.2841C53.972 16.6862 54.9242 16.3873 56.0517 16.3873C57.4048 16.3873 58.4822 16.8108 59.3341 17.6578C60.1861 18.5048 60.612 19.6258 60.612 21.0209V24.5584C60.612 25.9534 60.1861 27.0745 59.3341 27.9215C58.4822 28.7685 57.4048 29.192 56.0517 29.192C54.9242 29.192 53.972 28.918 53.1702 28.3201C52.3684 27.7222 51.8422 26.925 51.5415 25.8787V34H49.6122ZM51.5415 24.0601C51.5415 25.1563 51.8673 26.0282 52.5187 26.6759C53.1702 27.3236 54.0221 27.6475 55.0996 27.6475C56.177 27.6475 57.054 27.3236 57.7055 26.6759C58.3569 26.0282 58.6827 25.1563 58.6827 24.0601V21.5191C58.6827 20.4479 58.3569 19.576 57.7055 18.9283C57.054 18.2806 56.177 17.9318 55.0996 17.9318C54.0221 17.9318 53.1702 18.2806 52.5187 18.9283C51.8673 19.576 51.5415 20.4479 51.5415 21.5191V24.0601Z" fill="url(#paint14_linear_1_2421)"/>
<path d="M37.208 29.0176V27.8218L40.6157 22.5405L37.4836 17.7574V16.5616H39.0371L42.2694 21.8429L45.5268 16.5616H47.0803V17.7574L43.9482 22.5405L47.3559 27.8218V29.0176H45.8024L42.2694 23.2629L38.7615 29.0176H37.208Z" fill="#134FCC"/>
<path d="M37.208 29.0176V27.8218L40.6157 22.5405L37.4836 17.7574V16.5616H39.0371L42.2694 21.8429L45.5268 16.5616H47.0803V17.7574L43.9482 22.5405L47.3559 27.8218V29.0176H45.8024L42.2694 23.2629L38.7615 29.0176H37.208Z" fill="url(#paint15_linear_1_2421)"/>
<path d="M26.3166 29.0176V11.5793H35.3871V13.2733H28.3462V19.3269H34.7607V21.0209H28.3462V27.3236H35.3871V29.0176H26.3166Z" fill="#134FCC"/>
<path d="M26.3166 29.0176V11.5793H35.3871V13.2733H28.3462V19.3269H34.7607V21.0209H28.3462V27.3236H35.3871V29.0176H26.3166Z" fill="url(#paint16_linear_1_2421)"/>
<defs>
<linearGradient id="paint0_linear_1_2421" x1="80" y1="10" x2="80" y2="34" gradientUnits="userSpaceOnUse">
<stop stop-color="#2D59EC"/>
<stop offset="1" stop-color="#1BABEB"/>
</linearGradient>
<linearGradient id="paint1_linear_1_2421" x1="80" y1="10" x2="80" y2="34" gradientUnits="userSpaceOnUse">
<stop stop-color="#2D59EC"/>
<stop offset="1" stop-color="#1BABEB"/>
</linearGradient>
<linearGradient id="paint2_linear_1_2421" x1="80" y1="10" x2="80" y2="34" gradientUnits="userSpaceOnUse">
<stop stop-color="#2D59EC"/>
<stop offset="1" stop-color="#1BABEB"/>
</linearGradient>
<linearGradient id="paint3_linear_1_2421" x1="80" y1="10" x2="80" y2="34" gradientUnits="userSpaceOnUse">
<stop stop-color="#2D59EC"/>
<stop offset="1" stop-color="#1BABEB"/>
</linearGradient>
<linearGradient id="paint4_linear_1_2421" x1="80" y1="10" x2="80" y2="34" gradientUnits="userSpaceOnUse">
<stop stop-color="#2D59EC"/>
<stop offset="1" stop-color="#1BABEB"/>
</linearGradient>
<linearGradient id="paint5_linear_1_2421" x1="80" y1="10" x2="80" y2="34" gradientUnits="userSpaceOnUse">
<stop stop-color="#2D59EC"/>
<stop offset="1" stop-color="#1BABEB"/>
</linearGradient>
<linearGradient id="paint6_linear_1_2421" x1="-2055.27" y1="12.7191" x2="123.075" y2="376.993" gradientUnits="userSpaceOnUse">
<stop stop-color="#2D56EC"/>
<stop offset="1" stop-color="#1AACEA"/>
</linearGradient>
<linearGradient id="paint7_linear_1_2421" x1="-1620.62" y1="3.798" x2="325.458" y2="208.099" gradientUnits="userSpaceOnUse">
<stop stop-color="#2D56EC"/>
<stop offset="1" stop-color="#1AACEA"/>
</linearGradient>
<linearGradient id="paint8_linear_1_2421" x1="-1443.29" y1="3.79799" x2="502.789" y2="208.099" gradientUnits="userSpaceOnUse">
<stop stop-color="#2D56EC"/>
<stop offset="1" stop-color="#1AACEA"/>
</linearGradient>
<linearGradient id="paint9_linear_1_2421" x1="-1295.17" y1="11.9591" x2="671.731" y2="296.756" gradientUnits="userSpaceOnUse">
<stop stop-color="#2D56EC"/>
<stop offset="1" stop-color="#1AACEA"/>
</linearGradient>
<linearGradient id="paint10_linear_1_2421" x1="-1130.96" y1="3.65629" x2="895.627" y2="223.665" gradientUnits="userSpaceOnUse">
<stop stop-color="#2D56EC"/>
<stop offset="1" stop-color="#1AACEA"/>
</linearGradient>
<linearGradient id="paint11_linear_1_2421" x1="-982.563" y1="3.65651" x2="1106.11" y2="237.525" gradientUnits="userSpaceOnUse">
<stop stop-color="#2D56EC"/>
<stop offset="1" stop-color="#1AACEA"/>
</linearGradient>
<linearGradient id="paint12_linear_1_2421" x1="-799.7" y1="3.56875" x2="1314.58" y2="239.936" gradientUnits="userSpaceOnUse">
<stop stop-color="#2D56EC"/>
<stop offset="1" stop-color="#1AACEA"/>
</linearGradient>
<linearGradient id="paint13_linear_1_2421" x1="-568.852" y1="3.65632" x2="1457.73" y2="223.665" gradientUnits="userSpaceOnUse">
<stop stop-color="#2D56EC"/>
<stop offset="1" stop-color="#1AACEA"/>
</linearGradient>
<linearGradient id="paint14_linear_1_2421" x1="-367.389" y1="5.38795" x2="1585.83" y2="289.078" gradientUnits="userSpaceOnUse">
<stop stop-color="#2D56EC"/>
<stop offset="1" stop-color="#1AACEA"/>
</linearGradient>
<linearGradient id="paint15_linear_1_2421" x1="-202.657" y1="3.14279" x2="1932.72" y2="240.898" gradientUnits="userSpaceOnUse">
<stop stop-color="#2D56EC"/>
<stop offset="1" stop-color="#1AACEA"/>
</linearGradient>
<linearGradient id="paint16_linear_1_2421" x1="24.3547" y1="13.0027" x2="161.444" y2="14.868" gradientUnits="userSpaceOnUse">
<stop stop-color="#2D56EC"/>
<stop offset="1" stop-color="#1AACEA"/>
</linearGradient>
</defs>
</svg>
